<svg width="127" height="26" viewBox="0 0 127 26" fill="none" xmlns="http://www.w3.org/2000/svg">
<path d="M1.19879 25V6.055L0.703789 2.59L6.46379 2.125V9.475L12.3288 2.5H17.8488L10.3638 11.5L6.31379 12.97L10.2138 14.26L18.1638 25H12.4638L6.46379 16.9V25H1.19879ZM36.1221 2.5V16.99C36.1221 18.38 35.8971 19.595 35.4471 20.635C35.0071 21.665 34.3921 22.525 33.6021 23.215C32.8221 23.895 31.8971 24.405 30.8271 24.745C29.7671 25.085 28.6171 25.255 27.3771 25.255C26.0371 25.255 24.8471 25.04 23.8071 24.61C22.7771 24.18 21.9071 23.57 21.1971 22.78C20.4971 21.99 19.9621 21.045 19.5921 19.945C19.2221 18.835 19.0371 17.61 19.0371 16.27V6.055L18.5421 2.59L24.2421 2.11V16.54C24.2421 17.35 24.3271 18.075 24.4971 18.715C24.6771 19.355 24.9171 19.895 25.2171 20.335C25.5171 20.775 25.8621 21.11 26.2521 21.34C26.6521 21.57 27.0721 21.685 27.5121 21.685C28.5621 21.685 29.3921 21.315 30.0021 20.575C30.6221 19.835 30.9321 18.73 30.9321 17.26V2.5H36.1221Z" fill="#6BAE86"/>
<path d="M61.6612 7.33C61.2012 7.06 60.7812 6.83 60.4012 6.64C60.0312 6.44 59.6862 6.275 59.3662 6.145C59.0462 6.005 58.7412 5.905 58.4512 5.845C58.1712 5.775 57.8912 5.74 57.6112 5.74C57.2412 5.74 56.8812 5.785 56.5312 5.875C56.1812 5.955 55.8712 6.09 55.6012 6.28C55.3312 6.46 55.1112 6.705 54.9412 7.015C54.7812 7.315 54.7012 7.685 54.7012 8.125C54.7012 8.535 54.7962 8.895 54.9862 9.205C55.1762 9.515 55.4262 9.795 55.7362 10.045C56.0562 10.295 56.4212 10.525 56.8312 10.735C57.2412 10.935 57.6662 11.135 58.1062 11.335C58.6062 11.565 59.1112 11.805 59.6212 12.055C60.1412 12.295 60.6412 12.565 61.1212 12.865C61.6012 13.155 62.0512 13.475 62.4712 13.825C62.8912 14.175 63.2562 14.57 63.5662 15.01C63.8862 15.45 64.1362 15.94 64.3162 16.48C64.4962 17.02 64.5862 17.62 64.5862 18.28C64.5862 19.44 64.3462 20.455 63.8662 21.325C63.3862 22.195 62.7462 22.92 61.9462 23.5C61.1562 24.08 60.2412 24.52 59.2012 24.82C58.1712 25.11 57.1062 25.255 56.0062 25.255C54.7462 25.255 53.5812 25.08 52.5112 24.73C51.4512 24.37 50.3862 23.855 49.3162 23.185L51.3862 19.78C51.6562 19.96 51.9762 20.16 52.3462 20.38C52.7162 20.59 53.1062 20.785 53.5162 20.965C53.9362 21.145 54.3562 21.3 54.7762 21.43C55.1962 21.55 55.5962 21.61 55.9762 21.61C56.4162 21.61 56.8512 21.555 57.2812 21.445C57.7112 21.335 58.0912 21.16 58.4212 20.92C58.7612 20.67 59.0312 20.355 59.2312 19.975C59.4412 19.585 59.5462 19.11 59.5462 18.55C59.5462 18.01 59.4212 17.54 59.1712 17.14C58.9312 16.73 58.6112 16.37 58.2112 16.06C57.8212 15.74 57.3762 15.455 56.8762 15.205C56.3762 14.945 55.8712 14.695 55.3612 14.455C54.6412 14.115 53.9312 13.765 53.2312 13.405C52.5412 13.035 51.9162 12.62 51.3562 12.16C50.8062 11.7 50.3612 11.18 50.0212 10.6C49.6812 10.01 49.5112 9.325 49.5112 8.545C49.5112 7.535 49.7312 6.64 50.1712 5.86C50.6212 5.07 51.2112 4.41 51.9412 3.88C52.6712 3.34 53.4962 2.935 54.4162 2.665C55.3462 2.385 56.2912 2.245 57.2512 2.245C58.4212 2.245 59.5462 2.43 60.6262 2.8C61.7062 3.17 62.8012 3.725 63.9112 4.465L61.6612 7.33ZM72.0504 25H67.1604V4.315L66.8304 1L72.0504 0.534999V10.72L73.8504 8.395C74.1204 8.345 74.3904 8.31 74.6604 8.29C74.9404 8.26 75.2054 8.245 75.4554 8.245C76.3354 8.245 77.1204 8.38 77.8104 8.65C78.5104 8.91 79.1004 9.295 79.5804 9.805C80.0604 10.305 80.4254 10.93 80.6754 11.68C80.9254 12.42 81.0504 13.27 81.0504 14.23V25H76.1604V14.11C76.1604 13.59 76.1154 13.16 76.0254 12.82C75.9454 12.48 75.8354 12.215 75.6954 12.025C75.5554 11.825 75.3954 11.69 75.2154 11.62C75.0354 11.54 74.8504 11.5 74.6604 11.5C74.4404 11.5 74.2104 11.53 73.9704 11.59C73.7404 11.65 73.5054 11.735 73.2654 11.845C73.0354 11.945 72.8154 12.075 72.6054 12.235C72.3954 12.385 72.2104 12.55 72.0504 12.73V25ZM97.9436 25H92.8586V22.57L91.0586 25.18C90.9786 25.2 90.8836 25.215 90.7736 25.225C90.6636 25.245 90.5036 25.255 90.2936 25.255C89.4336 25.255 88.6186 25.135 87.8486 24.895C87.0786 24.645 86.4036 24.285 85.8236 23.815C85.2436 23.335 84.7786 22.745 84.4286 22.045C84.0886 21.345 83.9186 20.54 83.9186 19.63C83.9186 18.99 84.0136 18.41 84.2036 17.89C84.3936 17.37 84.6536 16.905 84.9836 16.495C85.3236 16.085 85.7136 15.73 86.1536 15.43C86.5936 15.13 87.0636 14.885 87.5636 14.695C88.0736 14.495 88.5936 14.35 89.1236 14.26C89.6636 14.16 90.1886 14.11 90.6986 14.11C91.1486 14.11 91.5486 14.125 91.8986 14.155C92.2586 14.185 92.5736 14.225 92.8436 14.275C92.8336 13.875 92.8036 13.51 92.7536 13.18C92.7036 12.84 92.6136 12.545 92.4836 12.295C92.3536 12.045 92.1786 11.85 91.9586 11.71C91.7386 11.57 91.4586 11.5 91.1186 11.5C90.2686 11.5 89.4536 11.6 88.6736 11.8C87.8936 11.99 87.1886 12.2 86.5586 12.43L84.9986 9.655C85.7786 9.305 86.5436 9.025 87.2936 8.815C87.7736 8.675 88.3386 8.545 88.9886 8.425C89.6486 8.305 90.4036 8.245 91.2536 8.245C92.5536 8.245 93.6136 8.405 94.4336 8.725C95.2636 9.035 95.9086 9.48 96.3686 10.06C96.8386 10.63 97.1586 11.32 97.3286 12.13C97.5086 12.93 97.5986 13.815 97.5986 14.785V21.925L97.9436 25ZM92.8586 17.275C92.6186 17.245 92.3536 17.22 92.0636 17.2C91.7836 17.17 91.5136 17.155 91.2536 17.155C90.8936 17.155 90.5386 17.205 90.1886 17.305C89.8486 17.405 89.5436 17.555 89.2736 17.755C89.0036 17.955 88.7836 18.21 88.6136 18.52C88.4436 18.83 88.3586 19.195 88.3586 19.615C88.3586 19.955 88.4136 20.27 88.5236 20.56C88.6336 20.85 88.7786 21.105 88.9586 21.325C89.1386 21.535 89.3386 21.7 89.5586 21.82C89.7886 21.94 90.0186 22 90.2486 22C90.5386 22 90.8136 21.955 91.0736 21.865C91.3436 21.775 91.5886 21.665 91.8086 21.535C92.0386 21.395 92.2386 21.245 92.4086 21.085C92.5886 20.925 92.7386 20.78 92.8586 20.65V17.275ZM110.945 11.995C110.745 11.895 110.565 11.815 110.405 11.755C110.245 11.685 110.085 11.63 109.925 11.59C109.765 11.55 109.595 11.525 109.415 11.515C109.245 11.505 109.045 11.5 108.815 11.5C108.535 11.5 108.25 11.57 107.96 11.71C107.68 11.84 107.405 12.02 107.135 12.25C106.875 12.48 106.635 12.745 106.415 13.045C106.195 13.335 106.01 13.64 105.86 13.96V25H100.97V8.605L105.86 8.11V11.575L107.27 8.5C107.43 8.44 107.655 8.385 107.945 8.335C108.245 8.275 108.525 8.245 108.785 8.245C109.335 8.245 109.785 8.29 110.135 8.38C110.495 8.46 110.835 8.58 111.155 8.74L110.945 11.995ZM126.152 22.63C125.782 23.01 125.382 23.36 124.952 23.68C124.522 24 124.047 24.275 123.527 24.505C123.007 24.735 122.437 24.915 121.817 25.045C121.197 25.175 120.512 25.24 119.762 25.24C118.322 25.24 117.092 25.005 116.072 24.535C115.052 24.065 114.217 23.44 113.567 22.66C112.927 21.87 112.457 20.965 112.157 19.945C111.867 18.925 111.722 17.86 111.722 16.75C111.722 16.04 111.792 15.34 111.932 14.65C112.072 13.95 112.282 13.29 112.562 12.67C112.852 12.04 113.207 11.455 113.627 10.915C114.057 10.375 114.557 9.91 115.127 9.52C115.697 9.13 116.337 8.825 117.047 8.605C117.767 8.375 118.557 8.26 119.417 8.26C120.617 8.26 121.657 8.44 122.537 8.8C123.417 9.15 124.142 9.645 124.712 10.285C125.282 10.915 125.707 11.675 125.987 12.565C126.267 13.455 126.407 14.44 126.407 15.52C126.407 15.79 126.387 16.145 126.347 16.585C126.317 17.025 126.277 17.5 126.227 18.01H116.177C116.197 18.55 116.312 19.065 116.522 19.555C116.732 20.035 117.007 20.455 117.347 20.815C117.697 21.175 118.102 21.465 118.562 21.685C119.022 21.895 119.522 22 120.062 22C120.502 22 120.917 21.95 121.307 21.85C121.707 21.75 122.067 21.63 122.387 21.49C122.717 21.34 123.007 21.19 123.257 21.04C123.507 20.88 123.702 20.74 123.842 20.62L126.152 22.63ZM122.147 14.92C122.147 14.46 122.112 14.025 122.042 13.615C121.972 13.205 121.842 12.845 121.652 12.535C121.462 12.215 121.202 11.965 120.872 11.785C120.552 11.595 120.137 11.5 119.627 11.5C119.197 11.5 118.817 11.575 118.487 11.725C118.167 11.875 117.887 12.065 117.647 12.295C117.417 12.515 117.227 12.75 117.077 13C116.927 13.25 116.812 13.47 116.732 13.66L115.367 15.205L117.962 14.935L122.147 14.92Z" fill="black"/>
</svg>
