<svg width="33" height="24" viewBox="0 0 33 24" fill="none" xmlns="http://www.w3.org/2000/svg">
<path d="M1.07379 23V4.055L0.578789 0.589999L6.33879 0.124999V7.475L12.2038 0.499998H17.7238L10.2388 9.5L6.18879 10.97L10.0888 12.26L18.0388 23H12.3388L6.33879 14.9V23H1.07379Z" fill="#6BAE86"/>
<path d="M30.0421 5.33C29.5821 5.06 29.1621 4.83 28.7821 4.64C28.4121 4.44 28.0671 4.275 27.7471 4.145C27.4271 4.005 27.1221 3.905 26.8321 3.845C26.5521 3.775 26.2721 3.74 25.9921 3.74C25.6221 3.74 25.2621 3.785 24.9121 3.875C24.5621 3.955 24.2521 4.09 23.9821 4.28C23.7121 4.46 23.4921 4.705 23.3221 5.015C23.1621 5.315 23.0821 5.685 23.0821 6.125C23.0821 6.535 23.1771 6.895 23.3671 7.205C23.5571 7.515 23.8071 7.795 24.1171 8.045C24.4371 8.295 24.8021 8.525 25.2121 8.735C25.6221 8.935 26.0471 9.135 26.4871 9.335C26.9871 9.565 27.4921 9.805 28.0021 10.055C28.5221 10.295 29.0221 10.565 29.5021 10.865C29.9821 11.155 30.4321 11.475 30.8521 11.825C31.2721 12.175 31.6371 12.57 31.9471 13.01C32.2671 13.45 32.5171 13.94 32.6971 14.48C32.8771 15.02 32.9671 15.62 32.9671 16.28C32.9671 17.44 32.7271 18.455 32.2471 19.325C31.7671 20.195 31.1271 20.92 30.3271 21.5C29.5371 22.08 28.6221 22.52 27.5821 22.82C26.5521 23.11 25.4871 23.255 24.3871 23.255C23.1271 23.255 21.9621 23.08 20.8921 22.73C19.8321 22.37 18.7671 21.855 17.6971 21.185L19.7671 17.78C20.0371 17.96 20.3571 18.16 20.7271 18.38C21.0971 18.59 21.4871 18.785 21.8971 18.965C22.3171 19.145 22.7371 19.3 23.1571 19.43C23.5771 19.55 23.9771 19.61 24.3571 19.61C24.7971 19.61 25.2321 19.555 25.6621 19.445C26.0921 19.335 26.4721 19.16 26.8021 18.92C27.1421 18.67 27.4121 18.355 27.6121 17.975C27.8221 17.585 27.9271 17.11 27.9271 16.55C27.9271 16.01 27.8021 15.54 27.5521 15.14C27.3121 14.73 26.9921 14.37 26.5921 14.06C26.2021 13.74 25.7571 13.455 25.2571 13.205C24.7571 12.945 24.2521 12.695 23.7421 12.455C23.0221 12.115 22.3121 11.765 21.6121 11.405C20.9221 11.035 20.2971 10.62 19.7371 10.16C19.1871 9.7 18.7421 9.18 18.4021 8.6C18.0621 8.01 17.8921 7.325 17.8921 6.545C17.8921 5.535 18.1121 4.64 18.5521 3.86C19.0021 3.07 19.5921 2.41 20.3221 1.88C21.0521 1.34 21.8771 0.934999 22.7971 0.664999C23.7271 0.384999 24.6721 0.244999 25.6321 0.244999C26.8021 0.244999 27.9271 0.429999 29.0071 0.8C30.0871 1.17 31.1821 1.725 32.2921 2.465L30.0421 5.33Z" fill="#898989"/>
</svg>
